# xmcd
#
# Track frame offsets:
# 150
# 18645
# 35966
# 54016
# 72279
# 87435
# 110879
# 129707
# 150511
# 164040
# 179982
# 200397
# 220882
# 238305
#
# Disc length: 3400 seconds
#
#
# Revision: 0
# Processed by: cddbd v1.5.1PL0 Copyright (c) Steve Scherf et al.
# Submitted via: FreeRIP 2.91 
#
DISCID=da0d460e
DTITLE=TIM McGRAW - SET THIS CIRCUS DOWN
DYEAR=1900
DGENRE=Country
TTITLE0=COWBOY IN ME
TTITLE1=TELLURIDE
TTITLE2=YOU GET USED TO SOMEBODY
TTITLE3=UNBROKEN
TTITLE4=THINGS CHANGE
TTITLE5=ANGEL BOY
TTITLE6=FORGET ABOUT US
TTITLE7=TAKE ME AWAY FROM HERE
TTITLE8=SMILIN'
TTITLE9=SET THIS CIRCUS DOWN
TTITLE10=ANGRY ALL THE TIME
TTITLE11=LET ME LOVE YOU
TTITLE12=GROWN MEN DON'T CRY
TTITLE13=WHY WE SAID GOODBYE
EXTD=
EXTT0=
EXTT1=
EXTT2=
EXTT3=
EXTT4=
EXTT5=
EXTT6=
EXTT7=
EXTT8=
EXTT9=
EXTT10=
EXTT11=
EXTT12=
EXTT13=
PLAYORDER=
